# xmcd CD database file
#
# Track frame offsets:
#	150
#	13070
#	25202
#	37419
#	49161
#	68772
#	84057
#	95568
#	107698
#	120798
#	132237
#	141656
#	151892
#	161107
#	174817
#	188675
#	199979
#	210697
#	220619
#	230647
#
# Disc length: 3205 seconds
#
# Revision: 1
# Processed by: cddbd v1.5.2PL0 Copyright (c) Steve Scherf et al.
# Submitted via: CDex 1.70beta2
#
DISCID=140c8314
DTITLE=Various Artist - It's Country [CD-2)
DYEAR=1900
DGENRE=Country
TTITLE0=Elvis Presley - Folsom Prison Blues
TTITLE1=Conway Twitty - Don't Think Twice
TTITLE2=Johnny Cash - Okie From Muskogee
TTITLE3=Dolly Parton - The Window Up Above
TTITLE4=George Jones - El Paso
TTITLE5=Jim Reeves - I Was Country When Country Wasn't Cool
TTITLE6=Johnny Paycheck - Suffering In Silence
TTITLE7=Lynn Anderson - Makin' Believe
TTITLE8=Merle Haggard - Whole Lotta Shakin' Going On
TTITLE9=Willie Nelson - The Heart You Break May Be Your Own
TTITLE10=Patsy Cline - Today I Started Loving You Again
TTITLE11=Faron Young - Release Me
TTITLE12=George Jones and Margie Singleton - One More Ride
TTITLE13=Buck Owens   - Family Bible
TTITLE14=Willie Nelson - Don't Take Your Guns To Town
TTITLE15=Conway Twitty - Just Out Of Reach
TTITLE16=Johnny Cash - Accidentally On Purpose
TTITLE17=Elvis Presley - What A Man, My Man Is
TTITLE18=Johnny Horton - Honky Tonk Man
TTITLE19=Waylon Jennings - Heartbreak Hotel
EXTD=
EXTT0=
EXTT1=
EXTT2=
EXTT3=
EXTT4=
EXTT5=
EXTT6=
EXTT7=
EXTT8=
EXTT9=
EXTT10=
EXTT11=
EXTT12=
EXTT13=
EXTT14=
EXTT15=
EXTT16=
EXTT17=
EXTT18=
EXTT19=
PLAYORDER=
